<?xml version="1.0" standalone="no"?>
<!DOCTYPE svg PUBLIC "-//W3C//DTD SVG 20010904//EN"
 "http://www.w3.org/TR/2001/REC-SVG-20010904/DTD/svg10.dtd">
<svg version="1.0" xmlns="http://www.w3.org/2000/svg"
 width="180.000000pt" height="180.000000pt" viewBox="0 0 180.000000 180.000000"
 preserveAspectRatio="xMidYMid meet">
<metadata>
Created by potrace 1.11, written by Peter Selinger 2001-2013
</metadata>
<g transform="translate(0.000000,180.000000) scale(0.100000,-0.100000)"
fill="#000000" stroke="none">
<path d="M779 1545 c-26 -7 -61 -20 -79 -28 -26 -14 -30 -14 -20 -2 21 25 -11
18 -62 -14 -107 -68 -168 -163 -213 -331 -39 -149 -31 -257 28 -379 48 -99
175 -217 225 -209 9 1 43 -10 74 -25 91 -43 143 -52 234 -38 79 12 234 74 234
94 0 5 -7 6 -16 3 -60 -23 -202 -13 -262 18 l-24 12 36 32 c20 18 55 41 78 53
39 20 46 21 109 9 77 -15 191 -9 216 11 23 19 72 131 75 171 3 27 -2 34 -26
46 -36 18 -141 19 -227 3 -77 -15 -89 -11 -197 66 -63 45 -63 45 -41 60 12 9
51 26 88 38 l66 23 56 -28 c84 -43 163 -63 230 -58 32 2 62 7 65 11 10 9 -14
111 -38 169 -38 90 -144 135 -294 125 -80 -5 -86 -3 -122 23 -20 15 -52 42
-70 61 -29 30 -31 34 -15 41 28 10 153 9 198 -3 22 -5 64 -19 93 -31 29 -11
55 -18 58 -16 9 10 -131 76 -192 92 -73 19 -200 19 -265 1z m90 -179 c24 -38
26 -46 11 -46 -6 0 -35 -15 -65 -34 l-53 -35 -15 38 c-8 20 -18 57 -22 82 -7
50 1 62 70 97 l40 20 7 -44 c3 -24 16 -59 27 -78z m-220 -208 c8 -22 6 -36
-10 -73 -11 -25 -25 -73 -31 -108 l-11 -62 -28 60 c-41 88 -36 149 24 280 l32
70 7 -70 c3 -39 11 -82 17 -97z m142 -225 c8 -10 32 -32 52 -50 l37 -32 -26
-28 c-15 -15 -35 -47 -46 -70 -10 -24 -22 -43 -26 -43 -4 0 -22 14 -41 31 -31
29 -33 34 -27 76 6 49 40 133 53 133 5 0 15 -8 24 -17z"/>
<path d="M563 380 c-66 -27 -54 -139 17 -155 37 -8 80 16 80 45 0 26 -17 25
-40 -2 -26 -31 -54 -14 -58 35 -2 28 1 38 18 47 17 9 25 8 39 -4 22 -20 41
-21 41 -2 0 30 -58 52 -97 36z"/>
<path d="M706 369 c-14 -11 -23 -25 -20 -31 3 -5 12 0 21 11 26 37 93 22 93
-20 0 -14 -10 -19 -42 -22 l-43 -4 43 -1 c33 -2 42 -6 42 -20 0 -44 -67 -59
-94 -20 -9 12 -18 19 -22 16 -10 -11 44 -58 66 -58 11 0 32 11 45 25 34 33 34
87 0 120 -30 30 -54 31 -89 4z"/>
<path d="M210 305 l0 -75 54 0 c45 0 58 4 70 21 25 37 -4 79 -56 79 -15 0 -28
5 -28 10 0 6 18 10 40 10 29 0 40 4 40 15 0 12 -13 15 -60 15 l-60 0 0 -75z
m97 -21 c7 -18 -12 -34 -39 -34 -13 0 -18 8 -18 25 0 20 5 25 25 25 14 0 28
-7 32 -16z"/>
<path d="M370 305 c0 -60 3 -75 15 -75 9 0 15 9 15 24 0 48 27 42 59 -12 4 -8
18 -12 30 -10 22 3 21 4 -10 46 l-32 43 29 30 c25 26 26 29 8 29 -11 0 -31
-11 -44 -25 -13 -14 -27 -25 -32 -25 -4 0 -8 11 -8 25 0 16 -6 25 -15 25 -12
0 -15 -15 -15 -75z"/>
<path d="M840 285 c0 -30 5 -55 10 -55 6 0 10 9 10 19 0 33 22 36 42 8 11 -15
24 -27 29 -27 6 0 -1 15 -15 33 -26 34 -26 34 -6 52 11 10 18 21 15 23 -3 3
-19 -7 -35 -23 l-30 -29 0 27 c0 15 -4 27 -10 27 -5 0 -10 -25 -10 -55z"/>
<path d="M957 322 c-10 -10 -17 -28 -17 -40 0 -25 33 -62 54 -62 18 0 46 27
46 43 0 7 -7 4 -15 -6 -8 -11 -23 -17 -37 -15 -19 2 -23 9 -23 37 0 45 26 62
54 37 22 -20 30 -9 9 12 -18 18 -53 15 -71 -6z"/>
<path d="M1060 285 c0 -30 5 -55 10 -55 6 0 10 23 10 50 0 49 1 50 30 50 29 0
30 -1 30 -50 0 -27 5 -50 10 -50 6 0 10 25 10 55 l0 55 -50 0 -50 0 0 -55z"/>
<path d="M1189 336 c-6 -4 -4 -148 2 -152 9 -5 14 36 10 92 -4 51 52 75 69 29
12 -33 -6 -65 -35 -65 -15 0 -24 -4 -20 -10 18 -30 75 7 75 49 0 44 -18 62
-61 59 -21 -1 -39 -2 -40 -2z"/>
<path d="M1317 322 c-10 -10 -17 -28 -17 -40 0 -24 33 -62 53 -62 20 0 53 27
44 36 -4 5 -12 3 -16 -5 -11 -18 -55 -10 -59 12 -3 14 4 17 37 17 33 0 41 4
41 18 0 41 -54 57 -83 24z m61 -4 c20 -20 14 -28 -23 -28 -19 0 -35 4 -35 8 0
12 22 32 35 32 6 0 16 -5 23 -12z"/>
<path d="M1432 328 c-30 -30 -2 -108 40 -108 19 0 54 38 44 47 -4 5 -12 0 -17
-10 -25 -45 -84 6 -60 52 14 25 46 28 60 4 5 -10 13 -15 17 -11 4 4 1 14 -6
23 -15 18 -61 20 -78 3z"/>
<path d="M1545 317 c-32 -50 10 -111 61 -88 13 6 24 19 24 28 -1 17 -1 17 -11
1 -16 -29 -57 -23 -65 9 -13 49 33 83 62 46 14 -17 15 -17 12 2 -5 32 -62 33
-83 2z"/>
</g>
</svg>
